<svg id="visual" viewBox="0 0 1200 630" width="1200" height="630" xmlns="http://www.w3.org/2000/svg" xmlns:xlink="http://www.w3.org/1999/xlink" version="1.1"><path d="M0 230L28.5 220.7C57 211.3 114 192.7 171.2 186.3C228.3 180 285.7 186 342.8 196.5C400 207 457 222 514.2 221.8C571.3 221.7 628.7 206.3 685.8 199.2C743 192 800 193 857.2 203.2C914.3 213.3 971.7 232.7 1028.8 240.3C1086 248 1143 244 1171.5 242L1200 240L1200 0L1171.5 0C1143 0 1086 0 1028.8 0C971.7 0 914.3 0 857.2 0C800 0 743 0 685.8 0C628.7 0 571.3 0 514.2 0C457 0 400 0 342.8 0C285.7 0 228.3 0 171.2 0C114 0 57 0 28.5 0L0 0Z" fill="#f5dcbd"></path><path d="M0 197L28.5 197.3C57 197.7 114 198.3 171.2 191.7C228.3 185 285.7 171 342.8 169.2C400 167.3 457 177.7 514.2 174.3C571.3 171 628.7 154 685.8 143.3C743 132.7 800 128.3 857.2 131.8C914.3 135.3 971.7 146.7 1028.8 151C1086 155.3 1143 152.7 1171.5 151.3L1200 150L1200 0L1171.5 0C1143 0 1086 0 1028.8 0C971.7 0 914.3 0 857.2 0C800 0 743 0 685.8 0C628.7 0 571.3 0 514.2 0C457 0 400 0 342.8 0C285.7 0 228.3 0 171.2 0C114 0 57 0 28.5 0L0 0Z" fill="#f4c793"></path><path d="M0 122L28.5 128C57 134 114 146 171.2 151.2C228.3 156.3 285.7 154.7 342.8 146C400 137.3 457 121.7 514.2 117.8C571.3 114 628.7 122 685.8 131C743 140 800 150 857.2 152.2C914.3 154.3 971.7 148.7 1028.8 147.2C1086 145.7 1143 148.3 1171.5 149.7L1200 151L1200 0L1171.5 0C1143 0 1086 0 1028.8 0C971.7 0 914.3 0 857.2 0C800 0 743 0 685.8 0C628.7 0 571.3 0 514.2 0C457 0 400 0 342.8 0C285.7 0 228.3 0 171.2 0C114 0 57 0 28.5 0L0 0Z" fill="#f3b16b"></path><path d="M0 116L28.5 109.7C57 103.3 114 90.7 171.2 89.2C228.3 87.7 285.7 97.3 342.8 103C400 108.7 457 110.3 514.2 104.5C571.3 98.7 628.7 85.3 685.8 87.2C743 89 800 106 857.2 107.7C914.3 109.3 971.7 95.7 1028.8 85.5C1086 75.3 1143 68.7 1171.5 65.3L1200 62L1200 0L1171.5 0C1143 0 1086 0 1028.8 0C971.7 0 914.3 0 857.2 0C800 0 743 0 685.8 0C628.7 0 571.3 0 514.2 0C457 0 400 0 342.8 0C285.7 0 228.3 0 171.2 0C114 0 57 0 28.5 0L0 0Z" fill="#f29a44"></path><path d="M0 76L28.5 69.8C57 63.7 114 51.3 171.2 45.7C228.3 40 285.7 41 342.8 47.3C400 53.7 457 65.3 514.2 70.3C571.3 75.3 628.7 73.7 685.8 68.2C743 62.7 800 53.3 857.2 48.3C914.3 43.3 971.7 42.7 1028.8 43C1086 43.3 1143 44.7 1171.5 45.3L1200 46L1200 0L1171.5 0C1143 0 1086 0 1028.8 0C971.7 0 914.3 0 857.2 0C800 0 743 0 685.8 0C628.7 0 571.3 0 514.2 0C457 0 400 0 342.8 0C285.7 0 228.3 0 171.2 0C114 0 57 0 28.5 0L0 0Z" fill="#f08019"></path></svg>