<svg id="visual" viewBox="0 0 1600 800" width="1600" height="800" xmlns="http://www.w3.org/2000/svg" xmlns:xlink="http://www.w3.org/1999/xlink" version="1.1"><path d="M0 293L38.2 281C76.3 269 152.7 245 228.8 236.8C305 228.7 381 236.3 457.2 249.7C533.3 263 609.7 282 685.8 281.8C762 281.7 838 262.3 914.2 253.3C990.3 244.3 1066.7 245.7 1142.8 258.5C1219 271.3 1295 295.7 1371.2 305.3C1447.3 315 1523.7 310 1561.8 307.5L1600 305L1600 0L1561.8 0C1523.7 0 1447.3 0 1371.2 0C1295 0 1219 0 1142.8 0C1066.7 0 990.3 0 914.2 0C838 0 762 0 685.8 0C609.7 0 533.3 0 457.2 0C381 0 305 0 228.8 0C152.7 0 76.3 0 38.2 0L0 0Z" fill="#f5dcbd"></path><path d="M0 250L38.2 250.5C76.3 251 152.7 252 228.8 243.5C305 235 381 217 457.2 214.7C533.3 212.3 609.7 225.7 685.8 221.7C762 217.7 838 196.3 914.2 182.8C990.3 169.3 1066.7 163.7 1142.8 168C1219 172.3 1295 186.7 1371.2 192.2C1447.3 197.7 1523.7 194.3 1561.8 192.7L1600 191L1600 0L1561.8 0C1523.7 0 1447.3 0 1371.2 0C1295 0 1219 0 1142.8 0C1066.7 0 990.3 0 914.2 0C838 0 762 0 685.8 0C609.7 0 533.3 0 457.2 0C381 0 305 0 228.8 0C152.7 0 76.3 0 38.2 0L0 0Z" fill="#f4c793"></path><path d="M0 156L38.2 163.5C76.3 171 152.7 186 228.8 192.3C305 198.7 381 196.3 457.2 185.3C533.3 174.3 609.7 154.7 685.8 149.8C762 145 838 155 914.2 166.5C990.3 178 1066.7 191 1142.8 193.8C1219 196.7 1295 189.3 1371.2 187.3C1447.3 185.3 1523.7 188.7 1561.8 190.3L1600 192L1600 0L1561.8 0C1523.7 0 1447.3 0 1371.2 0C1295 0 1219 0 1142.8 0C1066.7 0 990.3 0 914.2 0C838 0 762 0 685.8 0C609.7 0 533.3 0 457.2 0C381 0 305 0 228.8 0C152.7 0 76.3 0 38.2 0L0 0Z" fill="#f3b16b"></path><path d="M0 147L38.2 139C76.3 131 152.7 115 228.8 113.2C305 111.3 381 123.7 457.2 130.8C533.3 138 609.7 140 685.8 132.7C762 125.3 838 108.7 914.2 111.2C990.3 113.7 1066.7 135.3 1142.8 137.5C1219 139.7 1295 122.3 1371.2 109.3C1447.3 96.3 1523.7 87.7 1561.8 83.3L1600 79L1600 0L1561.8 0C1523.7 0 1447.3 0 1371.2 0C1295 0 1219 0 1142.8 0C1066.7 0 990.3 0 914.2 0C838 0 762 0 685.8 0C609.7 0 533.3 0 457.2 0C381 0 305 0 228.8 0C152.7 0 76.3 0 38.2 0L0 0Z" fill="#f29a44"></path><path d="M0 97L38.2 89C76.3 81 152.7 65 228.8 57.7C305 50.3 381 51.7 457.2 59.8C533.3 68 609.7 83 685.8 89.5C762 96 838 94 914.2 87C990.3 80 1066.7 68 1142.8 61.5C1219 55 1295 54 1371.2 54.3C1447.3 54.7 1523.7 56.3 1561.8 57.2L1600 58L1600 0L1561.8 0C1523.7 0 1447.3 0 1371.2 0C1295 0 1219 0 1142.8 0C1066.7 0 990.3 0 914.2 0C838 0 762 0 685.8 0C609.7 0 533.3 0 457.2 0C381 0 305 0 228.8 0C152.7 0 76.3 0 38.2 0L0 0Z" fill="#f08019"></path></svg>