<svg id="visual" viewBox="0 0 960 540" width="960" height="540" xmlns="http://www.w3.org/2000/svg" xmlns:xlink="http://www.w3.org/1999/xlink" version="1.1"><path d="M0 197L22.8 189C45.7 181 91.3 165 137 159.5C182.7 154 228.3 159 274 168C319.7 177 365.3 190 411.2 190C457 190 503 177 548.8 170.8C594.7 164.7 640.3 165.3 686 173.8C731.7 182.3 777.3 198.7 823 205.3C868.7 212 914.3 209 937.2 207.5L960 206L960 0L937.2 0C914.3 0 868.7 0 823 0C777.3 0 731.7 0 686 0C640.3 0 594.7 0 548.8 0C503 0 457 0 411.2 0C365.3 0 319.7 0 274 0C228.3 0 182.7 0 137 0C91.3 0 45.7 0 22.8 0L0 0Z" fill="#f5dcbd"></path><path d="M0 169L22.8 169.2C45.7 169.3 91.3 169.7 137 163.8C182.7 158 228.3 146 274 144.5C319.7 143 365.3 152 411.2 149.3C457 146.7 503 132.3 548.8 123.2C594.7 114 640.3 110 686 112.8C731.7 115.7 777.3 125.3 823 129C868.7 132.7 914.3 130.3 937.2 129.2L960 128L960 0L937.2 0C914.3 0 868.7 0 823 0C777.3 0 731.7 0 686 0C640.3 0 594.7 0 548.8 0C503 0 457 0 411.2 0C365.3 0 319.7 0 274 0C228.3 0 182.7 0 137 0C91.3 0 45.7 0 22.8 0L0 0Z" fill="#f4c793"></path><path d="M0 105L22.8 110C45.7 115 91.3 125 137 129.3C182.7 133.7 228.3 132.3 274 125C319.7 117.7 365.3 104.3 411.2 101C457 97.7 503 104.3 548.8 112C594.7 119.7 640.3 128.3 686 130.2C731.7 132 777.3 127 823 125.8C868.7 124.7 914.3 127.3 937.2 128.7L960 130L960 0L937.2 0C914.3 0 868.7 0 823 0C777.3 0 731.7 0 686 0C640.3 0 594.7 0 548.8 0C503 0 457 0 411.2 0C365.3 0 319.7 0 274 0C228.3 0 182.7 0 137 0C91.3 0 45.7 0 22.8 0L0 0Z" fill="#f3b16b"></path><path d="M0 99L22.8 93.7C45.7 88.3 91.3 77.7 137 76.5C182.7 75.3 228.3 83.7 274 88.5C319.7 93.3 365.3 94.7 411.2 89.7C457 84.7 503 73.3 548.8 75C594.7 76.7 640.3 91.3 686 92.7C731.7 94 777.3 82 823 73.2C868.7 64.3 914.3 58.7 937.2 55.8L960 53L960 0L937.2 0C914.3 0 868.7 0 823 0C777.3 0 731.7 0 686 0C640.3 0 594.7 0 548.8 0C503 0 457 0 411.2 0C365.3 0 319.7 0 274 0C228.3 0 182.7 0 137 0C91.3 0 45.7 0 22.8 0L0 0Z" fill="#f29a44"></path><path d="M0 65L22.8 59.7C45.7 54.3 91.3 43.7 137 38.8C182.7 34 228.3 35 274 40.5C319.7 46 365.3 56 411.2 60.2C457 64.3 503 62.7 548.8 58C594.7 53.3 640.3 45.7 686 41.5C731.7 37.3 777.3 36.7 823 36.8C868.7 37 914.3 38 937.2 38.5L960 39L960 0L937.2 0C914.3 0 868.7 0 823 0C777.3 0 731.7 0 686 0C640.3 0 594.7 0 548.8 0C503 0 457 0 411.2 0C365.3 0 319.7 0 274 0C228.3 0 182.7 0 137 0C91.3 0 45.7 0 22.8 0L0 0Z" fill="#f08019"></path></svg>